<?xml version="1.0" encoding="UTF-8" standalone="no"?>
<svg
   xmlns:dc="http://purl.org/dc/elements/1.1/"
   xmlns:cc="http://creativecommons.org/ns#"
   xmlns:rdf="http://www.w3.org/1999/02/22-rdf-syntax-ns#"
   xmlns:svg="http://www.w3.org/2000/svg"
   xmlns="http://www.w3.org/2000/svg"
   xmlns:sodipodi="http://sodipodi.sourceforge.net/DTD/sodipodi-0.dtd"
   xmlns:inkscape="http://www.inkscape.org/namespaces/inkscape"
   width="16cm"
   height="25cm"
   viewBox="6 -1 317 485"
   id="svg2"
   version="1.1"
   inkscape:version="0.48.2 r9819"
   sodipodi:docname="Architecture.svg"
   inkscape:export-filename="/home/simon/INSA/5IF/PFE2/rapport/Architecture.png"
   inkscape:export-xdpi="90"
   inkscape:export-ydpi="90">
  <metadata
     id="metadata264">
    <rdf:RDF>
      <cc:Work
         rdf:about="">
        <dc:format>image/svg+xml</dc:format>
        <dc:type
           rdf:resource="http://purl.org/dc/dcmitype/StillImage" />
        <dc:title></dc:title>
      </cc:Work>
    </rdf:RDF>
  </metadata>
  <defs
     id="defs262" />
  <sodipodi:namedview
     pagecolor="#ffffff"
     bordercolor="#666666"
     borderopacity="1"
     objecttolerance="10"
     gridtolerance="10"
     guidetolerance="10"
     inkscape:pageopacity="0"
     inkscape:pageshadow="2"
     inkscape:window-width="1920"
     inkscape:window-height="1026"
     id="namedview260"
     showgrid="false"
     inkscape:zoom="1.0656711"
     inkscape:cx="325.94882"
     inkscape:cy="671.89527"
     inkscape:window-x="0"
     inkscape:window-y="26"
     inkscape:window-maximized="1"
     inkscape:current-layer="svg2" />
  <polyline
     id="polyline164"
     points="126.032,179.5 160.257,179.5 160.257,53 174.669,53 "
     style="fill:none;stroke:#000000;stroke-width:2"
     transform="matrix(0.99870841,0,0,1,0.12224053,0)" />
  <polygon
     id="polygon168"
     points="182.169,53 172.169,58 174.669,53 172.169,48 "
     style="fill:none;stroke:#000000;stroke-width:2"
     transform="matrix(0.99870841,0,0,1,0.12224053,0)" />
  <polygon
     id="polygon6"
     points="139.93,73 7.806,73 22.3648,33 154.488,33 "
     style="fill:#ffffff" />
  <polygon
     id="polygon8"
     points="139.93,73 7.806,73 22.3648,33 154.488,33 "
     style="fill:#8ae234;stroke:#376d04;stroke-width:2;stroke-opacity:1" />
  <text
     id="text10"
     y="56.900002"
     x="81.147202"
     style="font-size:12.80000019px;font-style:normal;font-weight:normal;text-anchor:middle;fill:#000000;font-family:sanserif">
    <tspan
       id="tspan12"
       y="56.900002"
       x="81.147202">HTML document</tspan>
  </text>
  <polygon
     id="polygon16"
     points="307.788,73 177.764,73 192.323,33 322.346,33 "
     style="fill:#ffffff" />
  <polygon
     id="polygon18"
     points="307.788,73 177.764,73 192.323,33 322.346,33 "
     style="fill:#8ae234;stroke:#376d04;stroke-width:2;stroke-opacity:1" />
  <text
     id="text20"
     y="56.900002"
     x="250.05499"
     style="font-size:12.80000019px;font-style:normal;font-weight:normal;text-anchor:middle;fill:#000000;font-family:sanserif">
    <tspan
       id="tspan22"
       y="56.900002"
       x="250.05499">CSS stylesheets</tspan>
  </text>
  <polygon
     id="polygon26"
     points="118.18,199.5 29.556,199.5 44.1148,159.5 132.738,159.5 "
     style="fill:#ffffff" />
  <polygon
     id="polygon28"
     points="118.18,199.5 29.556,199.5 44.1148,159.5 132.738,159.5 "
     style="fill:#8ae234;stroke:#376d04;stroke-width:2;stroke-opacity:1" />
  <text
     id="text30"
     y="183.39999"
     x="81.147202"
     style="font-size:12.80000019px;font-style:normal;font-weight:normal;text-anchor:middle;fill:#000000;font-family:sanserif">
    <tspan
       id="tspan32"
       y="183.39999"
       x="81.147202">DOM tree</tspan>
  </text>
  <rect
     id="rect36"
     height="38"
     width="102.75"
     y="97.25"
     x="29.7722"
     style="fill:#ffffff" />
  <rect
     id="rect38"
     height="38"
     width="102.75"
     y="97.25"
     x="29.7722"
     style="fill:#729fcf;stroke:#204a87;stroke-width:2" />
  <text
     id="text40"
     y="120.15"
     x="81.147202"
     style="font-size:12.80000019px;font-style:normal;font-weight:normal;text-anchor:middle;fill:#000000;font-family:sanserif">
    <tspan
       id="tspan42"
       y="120.15"
       x="81.147202">HTML parser</tspan>
  </text>
  <rect
     id="rect46"
     height="38"
     width="92.349998"
     y="97.25"
     x="203.88"
     style="fill:#ffffff" />
  <rect
     id="rect48"
     height="38"
     width="92.349998"
     y="97.25"
     x="203.88"
     style="fill:#729fcf;stroke:#204a87;stroke-width:2" />
  <text
     id="text50"
     y="120.15"
     x="250.05499"
     style="font-size:12.80000019px;font-style:normal;font-weight:normal;text-anchor:middle;fill:#000000;font-family:sanserif">
    <tspan
       id="tspan52"
       y="120.15"
       x="250.05499">CSS parser</tspan>
  </text>
  <polygon
     id="polygon56"
     points="290.901,197.5 195.378,197.5 209.209,159.5 304.732,159.5 "
     style="fill:#ffffff" />
  <polygon
     id="polygon58"
     points="290.901,197.5 195.378,197.5 209.209,159.5 304.732,159.5 "
     style="fill:#8ae234;stroke:#376d04;stroke-width:2;stroke-opacity:1" />
  <text
     id="text60"
     y="182.39999"
     x="250.05499"
     style="font-size:12.80000019px;font-style:normal;font-weight:normal;text-anchor:middle;fill:#000000;font-family:sanserif">
    <tspan
       id="tspan62"
       y="182.39999"
       x="250.05499">Style rules</tspan>
  </text>
  <rect
     id="rect66"
     height="38"
     width="76.400002"
     y="223.75"
     x="42.947201"
     style="fill:#ffffff" />
  <rect
     id="rect68"
     height="38"
     width="76.400002"
     y="223.75"
     x="42.947201"
     style="fill:#729fcf;stroke:#204a87;stroke-width:2" />
  <text
     id="text70"
     y="246.64999"
     x="81.147202"
     style="font-size:12.80000019px;font-style:normal;font-weight:normal;text-anchor:middle;fill:#000000;font-family:sanserif">
    <tspan
       id="tspan72"
       y="246.64999"
       x="81.147202">Cascade</tspan>
  </text>
  <polygon
     id="polygon76"
     points="125.505,326 22.231,326 36.7898,286 140.063,286 "
     style="fill:#ffffff" />
  <polygon
     id="polygon78"
     points="125.505,326 22.231,326 36.7898,286 140.063,286 "
     style="fill:#8ae234;stroke:#376d04;stroke-width:2;stroke-opacity:1" />
  <text
     id="text80"
     y="309.89999"
     x="81.147202"
     style="font-size:12.80000019px;font-style:normal;font-weight:normal;text-anchor:middle;fill:#000000;font-family:sanserif">
    <tspan
       id="tspan82"
       y="309.89999"
       x="81.147202">Render tree</tspan>
  </text>
  <rect
     id="rect86"
     height="38"
     width="65.550003"
     y="287"
     x="217.28"
     style="fill:#ffffff" />
  <rect
     id="rect88"
     height="38"
     width="65.550003"
     y="287"
     x="217.28"
     style="fill:#729fcf;stroke:#204a87;stroke-width:2" />
  <text
     id="text90"
     y="309.89999"
     x="250.05499"
     style="font-size:12.80000019px;font-style:normal;font-weight:normal;text-anchor:middle;fill:#000000;font-family:sanserif">
    <tspan
       id="tspan92"
       y="309.89999"
       x="250.05499">Layout</tspan>
  </text>
  <rect
     id="rect96"
     height="38"
     width="75.199997"
     y="350.25"
     x="43.547199"
     style="fill:#ffffff" />
  <rect
     id="rect98"
     height="38"
     width="75.199997"
     y="350.25"
     x="43.547199"
     style="fill:#729fcf;stroke:#204a87;stroke-width:2" />
  <text
     id="text100"
     y="373.14999"
     x="81.147202"
     style="font-size:12.80000019px;font-style:normal;font-weight:normal;text-anchor:middle;fill:#000000;font-family:sanserif">
    <tspan
       id="tspan102"
       y="373.14999"
       x="81.147202">Drawing</tspan>
  </text>
  <polygon
     id="polygon106"
     points="106.463,452.5 41.273,452.5 55.8318,412.5 121.021,412.5 "
     style="fill:#ffffff" />
  <polygon
     id="polygon108"
     points="106.463,452.5 41.273,452.5 55.8318,412.5 121.021,412.5 "
     style="fill:#8ae234;stroke:#376d04;stroke-width:2;stroke-opacity:1" />
  <text
     id="text110"
     y="436.39999"
     x="81.147202"
     style="font-size:12.80000019px;font-style:normal;font-weight:normal;text-anchor:middle;fill:#000000;font-family:sanserif">
    <tspan
       id="tspan112"
       y="436.39999"
       x="81.147202">PDF</tspan>
  </text>
  <polyline
     id="polyline116"
     points="81.1472,74.0051 81.1472,74.0051 81.1472,86.5042 "
     style="fill:none;stroke:#000000;stroke-width:2" />
  <polygon
     id="polygon118"
     points="81.1472,86.5042 86.1472,84.0042 81.1472,94.0042 76.1472,84.0042 "
     style="fill:#000000" />
  <polygon
     id="polygon120"
     points="81.1472,86.5042 86.1472,84.0042 81.1472,94.0042 76.1472,84.0042 "
     style="fill:none;stroke:#000000;stroke-width:2" />
  <polyline
     id="polyline124"
     points="250.055,74.0051 250.055,74.0051 250.055,86.5042 "
     style="fill:none;stroke:#000000;stroke-width:2" />
  <polygon
     id="polygon126"
     points="250.055,86.5042 255.055,84.0042 250.055,94.0042 245.055,84.0042 "
     style="fill:#000000" />
  <polygon
     id="polygon128"
     points="250.055,86.5042 255.055,84.0042 250.055,94.0042 245.055,84.0042 "
     style="fill:none;stroke:#000000;stroke-width:2" />
  <polyline
     id="polyline132"
     points="81.1472,136.26 81.1472,136.26 81.1472,148.759 "
     style="fill:none;stroke:#000000;stroke-width:2" />
  <polygon
     id="polygon134"
     points="81.1472,148.759 86.1472,146.259 81.1472,156.259 76.1472,146.259 "
     style="fill:#000000" />
  <polygon
     id="polygon136"
     points="81.1472,148.759 86.1472,146.259 81.1472,156.259 76.1472,146.259 "
     style="fill:none;stroke:#000000;stroke-width:2" />
  <polyline
     id="polyline140"
     points="250.055,136.26 250.055,136.26 250.055,148.754 "
     style="fill:none;stroke:#000000;stroke-width:2" />
  <polygon
     id="polygon142"
     points="250.055,148.754 255.055,146.254 250.055,156.254 245.055,146.254 "
     style="fill:#000000" />
  <polygon
     id="polygon144"
     points="250.055,148.754 255.055,146.254 250.055,156.254 245.055,146.254 "
     style="fill:none;stroke:#000000;stroke-width:2" />
  <polyline
     id="polyline148"
     points="81.1472,200.505 81.1472,200.505 81.1472,213.004 "
     style="fill:none;stroke:#000000;stroke-width:2" />
  <polygon
     id="polygon150"
     points="81.1472,213.004 86.1472,210.504 81.1472,220.504 76.1472,210.504 "
     style="fill:#000000" />
  <polygon
     id="polygon152"
     points="81.1472,213.004 86.1472,210.504 81.1472,220.504 76.1472,210.504 "
     style="fill:none;stroke:#000000;stroke-width:2" />
  <polyline
     id="polyline156"
     points="243.14,197.5 243.14,242.75 129.083,242.75 "
     style="fill:none;stroke:#000000;stroke-width:2"
     transform="matrix(1.0569043,0,0,0.9802973,-6.4473643,4.78283)" />
  <polygon
     id="polygon158"
     points="129.083,242.75 131.583,247.75 121.583,242.75 131.583,237.75 "
     style="fill:#000000" />
  <polygon
     id="polygon160"
     points="131.583,247.75 121.583,242.75 131.583,237.75 129.083,242.75 "
     style="fill:none;stroke:#000000;stroke-width:2"
     transform="matrix(0.99212662,0,0,1,1.9143334,0)" />
  <polygon
     id="polygon166"
     points="174.669,53 172.169,48 182.169,53 172.169,58 "
     style="fill:#000000" />
  <polyline
     id="polyline172"
     points="144.413,306 206.536,306 "
     style="fill:none;stroke:#000000;stroke-width:2" />
  <polygon
     id="polygon174"
     points="144.413,301 134.413,306 144.413,311 "
     style="fill:#000000"
     transform="translate(1.7085879,0)" />
  <polygon
     id="polygon176"
     points="144.413,301 134.413,306 144.413,311 "
     style="fill:none;stroke:#000000;stroke-width:2"
     transform="translate(1.7085879,0)" />
  <polygon
     id="polygon178"
     points="206.536,306 204.036,301 214.036,306 204.036,311 "
     style="fill:#000000" />
  <polygon
     id="polygon180"
     points="206.536,306 204.036,301 214.036,306 204.036,311 "
     style="fill:none;stroke:#000000;stroke-width:2" />
  <polyline
     id="polyline184"
     points="81.1472,262.76 81.1472,262.76 81.1472,275.259 "
     style="fill:none;stroke:#000000;stroke-width:2" />
  <polygon
     id="polygon186"
     points="81.1472,275.259 86.1472,272.759 81.1472,282.759 76.1472,272.759 "
     style="fill:#000000" />
  <polygon
     id="polygon188"
     points="81.1472,275.259 86.1472,272.759 81.1472,282.759 76.1472,272.759 "
     style="fill:none;stroke:#000000;stroke-width:2" />
  <polyline
     id="polyline192"
     points="81.1472,327.005 81.1472,327.005 81.1472,339.504 "
     style="fill:none;stroke:#000000;stroke-width:2" />
  <polygon
     id="polygon194"
     points="81.1472,339.504 86.1472,337.004 81.1472,347.004 76.1472,337.004 "
     style="fill:#000000" />
  <polygon
     id="polygon196"
     points="81.1472,339.504 86.1472,337.004 81.1472,347.004 76.1472,337.004 "
     style="fill:none;stroke:#000000;stroke-width:2" />
  <polyline
     id="polyline200"
     points="81.1472,453.505 81.1472,467.174 81.1628,467.174 81.1628,471.108 "
     style="fill:none;stroke:#000000;stroke-width:2" />
  <polygon
     id="polygon202"
     points="81.1628,471.108 86.1628,468.608 81.1628,478.608 76.1628,468.608 "
     style="fill:none;stroke:#000000;stroke-width:2" />
  <polyline
     id="polyline206"
     points="81.1722,0.0859376 81.1722,16.0404 81.1472,16.0404 81.1472,22.2588 "
     style="fill:none;stroke:#000000;stroke-width:2" />
  <polygon
     id="polygon208"
     points="81.1472,22.2588 86.1472,19.7588 81.1472,29.7588 76.1472,19.7588 "
     style="fill:none;stroke:#000000;stroke-width:2" />
  <polyline
     id="polyline212"
     points="250.069,0.0625 250.069,16.0287 250.055,16.0287 250.055,22.2588 "
     style="fill:none;stroke:#000000;stroke-width:2" />
  <polygon
     id="polygon214"
     points="250.055,22.2588 255.055,19.7588 250.055,29.7588 245.055,19.7588 "
     style="fill:none;stroke:#000000;stroke-width:2" />
  <polygon
     id="polygon218"
     points="281.088,389.25 204.464,389.25 219.023,349.25 295.646,349.25 "
     style="fill:#ffffff" />
  <polygon
     id="polygon220"
     points="281.088,389.25 204.464,389.25 219.023,349.25 295.646,349.25 "
     style="fill:#8ae234;stroke:#376d04;stroke-width:2;stroke-opacity:1" />
  <text
     id="text222"
     y="373.14999"
     x="250.05499"
     style="font-size:12.79979992px;font-style:normal;font-weight:normal;text-anchor:middle;fill:#000000;font-family:sanserif">
    <tspan
       id="tspan224"
       y="373.14999"
       x="250.05499">Surface</tspan>
  </text>
  <rect
     id="rect228"
     height="38"
     width="67.699997"
     y="413.5"
     x="216.205"
     style="fill:#ffffff" />
  <rect
     id="rect230"
     height="38"
     width="67.699997"
     y="413.5"
     x="216.205"
     style="fill:#729fcf;stroke:#204a87;stroke-width:2" />
  <text
     id="text232"
     y="436.39999"
     x="250.05499"
     style="font-size:12.79979992px;font-style:normal;font-weight:normal;text-anchor:middle;fill:#000000;font-family:sanserif">
    <tspan
       id="tspan234"
       y="436.39999"
       x="250.05499">Writing</tspan>
  </text>
  <polyline
     id="polyline238"
     points="119.757,369.25 119.757,369.25 201.366,369.25 "
     style="fill:none;stroke:#000000;stroke-width:2" />
  <polygon
     id="polygon240"
     points="201.366,369.25 198.866,364.25 208.866,369.25 198.866,374.25 "
     style="fill:#000000" />
  <polygon
     id="polygon242"
     points="201.366,369.25 198.866,364.25 208.866,369.25 198.866,374.25 "
     style="fill:none;stroke:#000000;stroke-width:2" />
  <polyline
     id="polyline246"
     points="250.055,390.255 250.055,390.255 250.055,402.754 "
     style="fill:none;stroke:#000000;stroke-width:2" />
  <polygon
     id="polygon248"
     points="250.055,402.754 255.055,400.254 250.055,410.254 245.055,400.254 "
     style="fill:#000000" />
  <polygon
     id="polygon250"
     points="250.055,402.754 255.055,400.254 250.055,410.254 245.055,400.254 "
     style="fill:none;stroke:#000000;stroke-width:2" />
  <polyline
     id="polyline254"
     points="215.197,432.5 215.197,432.5 124.113,432.5 "
     style="fill:none;stroke:#000000;stroke-width:2" />
  <polygon
     id="polygon256"
     points="124.113,432.5 126.613,437.5 116.613,432.5 126.613,427.5 "
     style="fill:#000000" />
  <polygon
     id="polygon258"
     points="124.113,432.5 126.613,437.5 116.613,432.5 126.613,427.5 "
     style="fill:none;stroke:#000000;stroke-width:2" />
</svg>
