<?xml version="1.0" encoding="UTF-8" standalone="no"?>
<!-- Generator: Adobe Illustrator 15.0.2, SVG Export Plug-In . SVG Version: 6.00 Build 0)  -->

<svg
   xmlns:dc="http://purl.org/dc/elements/1.1/"
   xmlns:cc="http://creativecommons.org/ns#"
   xmlns:rdf="http://www.w3.org/1999/02/22-rdf-syntax-ns#"
   xmlns:svg="http://www.w3.org/2000/svg"
   xmlns="http://www.w3.org/2000/svg"
   xmlns:sodipodi="http://sodipodi.sourceforge.net/DTD/sodipodi-0.dtd"
   xmlns:inkscape="http://www.inkscape.org/namespaces/inkscape"
   version="1.1"
   id="Layer_1"
   x="0px"
   y="0px"
   width="104.664"
   height="104.666"
   viewBox="0 0 104.664 104.666"
   xml:space="preserve"
   inkscape:version="0.48.4 r9939"
   sodipodi:docname="rust-logo.svg"><metadata
     id="metadata9"><rdf:RDF><cc:Work
         rdf:about=""><dc:format>image/svg+xml</dc:format><dc:type
           rdf:resource="http://purl.org/dc/dcmitype/StillImage" /></cc:Work></rdf:RDF></metadata><defs
     id="defs7" /><sodipodi:namedview
     pagecolor="#ffffff"
     bordercolor="#666666"
     borderopacity="1"
     objecttolerance="10"
     gridtolerance="10"
     guidetolerance="10"
     inkscape:pageopacity="0"
     inkscape:pageshadow="2"
     inkscape:window-width="1366"
     inkscape:window-height="741"
     id="namedview5"
     showgrid="false"
     fit-margin-top="0"
     fit-margin-left="0"
     fit-margin-right="0"
     fit-margin-bottom="0"
     inkscape:zoom="1.6388889"
     inkscape:cx="53.318"
     inkscape:cy="51.333"
     inkscape:window-x="0"
     inkscape:window-y="27"
     inkscape:window-maximized="1"
     inkscape:current-layer="Layer_1" /><path
     d="m 103.949,51.049 -4.394,-2.72 c -0.037,-0.428 -0.079,-0.855 -0.125,-1.28 l 3.776,-3.522 c 0.384,-0.358 0.556,-0.888 0.452,-1.401 -0.101,-0.515 -0.462,-0.939 -0.953,-1.122 L 97.878,39.199 C 97.757,38.781 97.63,38.366 97.5,37.953 l 3.011,-4.182 c 0.307,-0.425 0.37,-0.978 0.17,-1.463 -0.2,-0.483 -0.637,-0.829 -1.154,-0.914 l -5.09,-0.828 C 94.239,30.18 94.033,29.8 93.825,29.423 l 2.139,-4.695 c 0.219,-0.478 0.174,-1.034 -0.118,-1.468 -0.291,-0.436 -0.784,-0.691 -1.31,-0.671 l -5.166,0.18 c -0.267,-0.334 -0.539,-0.665 -0.816,-0.99 l 1.187,-5.032 c 0.12,-0.511 -0.031,-1.046 -0.403,-1.417 -0.369,-0.37 -0.905,-0.523 -1.416,-0.403 l -5.031,1.186 C 82.565,15.837 82.234,15.564 81.899,15.297 L 82.08,10.131 C 82.1,9.608 81.845,9.111 81.409,8.821 80.972,8.529 80.419,8.485 79.942,8.702 l -4.694,2.14 C 74.869,10.634 74.489,10.428 74.105,10.229 L 73.275,5.138 C 73.191,4.622 72.845,4.184 72.361,3.984 71.878,3.783 71.324,3.848 70.899,4.154 L 66.714,7.165 C 66.302,7.034 65.888,6.908 65.47,6.788 L 63.665,1.96 C 63.482,1.468 63.058,1.107 62.543,1.005 62.029,0.904 61.5,1.075 61.143,1.457 L 57.621,5.236 C 57.196,5.189 56.768,5.146 56.341,5.111 L 53.621,0.716 C 53.346,0.271 52.859,0 52.335,0 51.811,0 51.324,0.271 51.05,0.716 L 48.33,5.111 C 47.902,5.146 47.474,5.189 47.049,5.236 L 43.526,1.457 C 43.169,1.075 42.639,0.904 42.126,1.005 41.611,1.108 41.187,1.468 41.004,1.96 l -1.805,4.828 c -0.418,0.12 -0.832,0.247 -1.245,0.377 L 33.77,4.154 c -0.425,-0.307 -0.979,-0.372 -1.463,-0.17 -0.483,0.2 -0.83,0.638 -0.914,1.154 l -0.83,5.091 c -0.384,0.199 -0.764,0.404 -1.143,0.613 l -4.694,-2.14 c -0.477,-0.218 -1.033,-0.173 -1.467,0.119 -0.436,0.29 -0.691,0.787 -0.671,1.31 l 0.18,5.166 c -0.334,0.267 -0.665,0.54 -0.992,0.816 l -5.031,-1.186 c -0.511,-0.119 -1.047,0.033 -1.417,0.403 -0.372,0.371 -0.523,0.906 -0.403,1.417 l 1.185,5.032 c -0.275,0.326 -0.547,0.656 -0.814,0.99 L 10.13,22.589 C 9.609,22.574 9.111,22.824 8.82,23.26 8.528,23.694 8.484,24.25 8.701,24.728 l 2.14,4.695 c -0.208,0.377 -0.414,0.757 -0.613,1.143 l -5.09,0.828 c -0.517,0.084 -0.953,0.43 -1.154,0.914 -0.2,0.485 -0.135,1.038 0.17,1.463 l 3.011,4.182 c -0.131,0.413 -0.258,0.828 -0.378,1.246 l -4.828,1.805 c -0.49,0.183 -0.851,0.607 -0.953,1.122 -0.102,0.514 0.069,1.043 0.452,1.401 l 3.777,3.522 c -0.047,0.425 -0.089,0.853 -0.125,1.28 l -4.394,2.72 C 0.271,51.324 0,51.81 0,52.335 0,52.86 0.271,53.346 0.716,53.62 l 4.394,2.72 c 0.036,0.428 0.078,0.855 0.125,1.28 l -3.777,3.523 c -0.383,0.357 -0.554,0.887 -0.452,1.4 0.102,0.515 0.463,0.938 0.953,1.122 l 4.828,1.805 c 0.12,0.418 0.247,0.833 0.378,1.246 l -3.011,4.183 c -0.306,0.426 -0.371,0.979 -0.17,1.462 0.201,0.485 0.638,0.831 1.155,0.914 l 5.089,0.828 c 0.199,0.386 0.403,0.766 0.613,1.145 l -2.14,4.693 c -0.218,0.477 -0.173,1.032 0.119,1.468 0.292,0.437 0.789,0.692 1.31,0.671 l 5.164,-0.181 c 0.269,0.336 0.54,0.665 0.816,0.992 l -1.185,5.033 c -0.12,0.51 0.031,1.043 0.403,1.414 0.369,0.373 0.906,0.522 1.417,0.402 l 5.031,-1.185 c 0.327,0.278 0.658,0.548 0.992,0.814 l -0.18,5.167 c -0.02,0.523 0.235,1.019 0.671,1.311 0.434,0.291 0.99,0.335 1.467,0.117 l 4.694,-2.139 c 0.378,0.21 0.758,0.414 1.143,0.613 l 0.83,5.088 c 0.084,0.518 0.43,0.956 0.914,1.155 0.483,0.201 1.038,0.136 1.463,-0.169 l 4.182,-3.013 c 0.413,0.131 0.828,0.259 1.246,0.379 l 1.805,4.826 c 0.183,0.49 0.607,0.853 1.122,0.953 0.514,0.104 1.043,-0.068 1.4,-0.452 l 3.523,-3.777 c 0.425,0.049 0.853,0.09 1.281,0.128 l 2.72,4.394 c 0.274,0.443 0.761,0.716 1.285,0.716 0.524,0 1.011,-0.272 1.286,-0.716 l 2.72,-4.394 c 0.428,-0.038 0.855,-0.079 1.28,-0.128 l 3.522,3.777 c 0.357,0.384 0.887,0.556 1.4,0.452 0.515,-0.101 0.939,-0.463 1.122,-0.953 l 1.805,-4.826 c 0.418,-0.12 0.833,-0.248 1.246,-0.379 l 4.183,3.013 c 0.425,0.305 0.979,0.37 1.462,0.169 0.484,-0.199 0.83,-0.638 0.914,-1.155 l 0.83,-5.088 c 0.384,-0.199 0.764,-0.406 1.143,-0.613 l 4.694,2.139 c 0.477,0.218 1.032,0.174 1.467,-0.117 0.436,-0.292 0.69,-0.787 0.671,-1.311 l -0.18,-5.167 c 0.334,-0.267 0.665,-0.536 0.991,-0.814 l 5.031,1.185 c 0.511,0.12 1.047,-0.029 1.416,-0.402 0.372,-0.371 0.523,-0.904 0.403,-1.414 l -1.185,-5.033 c 0.276,-0.327 0.548,-0.656 0.814,-0.992 l 5.166,0.181 c 0.521,0.021 1.019,-0.234 1.31,-0.671 0.292,-0.436 0.337,-0.991 0.118,-1.468 l -2.139,-4.693 c 0.209,-0.379 0.414,-0.759 0.612,-1.145 l 5.09,-0.828 c 0.518,-0.083 0.954,-0.429 1.154,-0.914 0.2,-0.483 0.137,-1.036 -0.17,-1.462 l -3.011,-4.183 c 0.13,-0.413 0.257,-0.828 0.378,-1.246 l 4.827,-1.805 c 0.491,-0.184 0.853,-0.607 0.953,-1.122 0.104,-0.514 -0.068,-1.043 -0.452,-1.4 L 99.429,57.62 c 0.046,-0.425 0.088,-0.853 0.125,-1.28 l 4.394,-2.72 c 0.445,-0.274 0.716,-0.761 0.716,-1.285 0,-0.524 -0.27,-1.011 -0.715,-1.286 z M 74.54,87.5 c -1.678,-0.362 -2.745,-2.016 -2.385,-3.699 0.359,-1.681 2.012,-2.751 3.689,-2.389 1.678,0.359 2.747,2.016 2.387,3.696 -0.36,1.68 -2.014,2.751 -3.691,2.392 z M 73.047,77.402 c -1.531,-0.328 -3.037,0.646 -3.365,2.18 l -1.56,7.28 c -4.814,2.185 -10.16,3.399 -15.79,3.399 -5.759,0 -11.221,-1.274 -16.121,-3.552 l -1.559,-7.28 C 34.324,77.897 32.818,76.921 31.288,77.25 l -6.427,1.38 C 23.668,77.402 22.558,76.094 21.538,74.713 H 52.81 c 0.354,0 0.59,-0.064 0.59,-0.386 V 63.265 c 0,-0.322 -0.236,-0.386 -0.59,-0.386 h -9.146 v -7.012 h 9.892 c 0.903,0 4.828,0.258 6.083,5.275 0.393,1.543 1.256,6.562 1.846,8.169 0.588,1.802 2.982,5.402 5.533,5.402 h 15.583 c 0.177,0 0.366,-0.02 0.565,-0.056 -1.081,1.469 -2.267,2.859 -3.544,4.158 l -6.575,-1.413 z m -43.252,9.946 c -1.678,0.362 -3.33,-0.708 -3.691,-2.389 -0.359,-1.684 0.708,-3.337 2.386,-3.699 1.678,-0.359 3.331,0.711 3.691,2.392 0.359,1.68 -0.709,3.336 -2.386,3.696 z M 17.932,39.243 c 0.696,1.571 -0.012,3.412 -1.581,4.107 -1.569,0.697 -3.405,-0.012 -4.101,-1.584 -0.696,-1.572 0.012,-3.41 1.581,-4.107 1.57,-0.696 3.405,0.012 4.101,1.584 z m -3.646,8.643 6.695,-2.975 c 1.43,-0.635 2.076,-2.311 1.441,-3.744 l -1.379,-3.118 h 5.423 V 62.493 H 15.525 c -0.949,-3.336 -1.458,-6.857 -1.458,-10.496 0,-1.389 0.075,-2.762 0.219,-4.111 z m 29.38,-2.374 V 38.307 H 56.58 c 0.667,0 4.71,0.771 4.71,3.794 0,2.51 -3.101,3.41 -5.651,3.41 H 43.666 z m 46.932,6.485 c 0,0.956 -0.035,1.902 -0.105,2.841 h -3.926 c -0.393,0 -0.551,0.258 -0.551,0.643 v 1.803 c 0,4.244 -2.393,5.167 -4.49,5.402 -1.997,0.225 -4.211,-0.836 -4.484,-2.058 -1.178,-6.626 -3.141,-8.041 -6.241,-10.486 3.847,-2.443 7.85,-6.047 7.85,-10.871 0,-5.209 -3.571,-8.49 -6.005,-10.099 C 69.231,26.921 65.45,26.47 64.43,26.47 H 23.827 C 29.333,20.325 36.795,15.972 45.235,14.388 l 4.786,5.021 c 1.082,1.133 2.874,1.175 4.006,0.092 l 5.355,-5.122 c 11.221,2.089 20.721,9.074 26.196,18.657 l -3.666,8.28 c -0.633,1.433 0.013,3.109 1.442,3.744 l 7.058,3.135 c 0.122,1.253 0.186,2.519 0.186,3.802 z M 50.023,10.117 c 1.24,-1.188 3.207,-1.141 4.394,0.101 1.185,1.245 1.14,3.214 -0.103,4.401 -1.24,1.188 -3.207,1.142 -4.394,-0.102 -1.184,-1.243 -1.139,-3.212 0.103,-4.4 z m 36.38,29.277 c 0.695,-1.571 2.531,-2.28 4.1,-1.583 1.569,0.696 2.277,2.536 1.581,4.107 -0.695,1.572 -2.531,2.281 -4.101,1.584 -1.567,-0.696 -2.275,-2.535 -1.58,-4.108 z"
     id="path3"
     inkscape:connector-curvature="0" /></svg>