<?xml version="1.0"?>
<svg id="logo" xmlns="http://www.w3.org/2000/svg" width="120mm" height="40mm" viewBox="0 0 150 50" fill="#383a47" fill-rule="evenodd">
  <path id="k" d="M 23,0 L 27,6 L 11,21 L 38,50 L 32,50 L 5,21 L 5,0 L 0,0 L 0,50 L 5,50 L 5,21"/>
  <path id="o" d="M 54,33 C 62,25 54,12 33,13 C 32,34 46,42 54,33 Z M 43,6 C 19,6 22,40 44,40 C 66,40 66,6 43,6 Z" fill="#5c8182"/>
  <circle id="dot" cx="46" cy="26" r="7" fill="#fd9105"/>
  <path id="z" d="M 59,5 L 83,4 L 54,50 L 90,50 L 85,45 L 64,46 L 90,0 L 54,0 Z"/>
  <path id="e" d="M 112,26 C 110,26 109,26 107,26 C 100,26 92,28 92,37 C 92,46 114,49 121,37 L 123,44 C 119,47 116,50 106,50 C 95,50 88,44 88,36 C 88,26 94,25 100,23 C 95,22 90,18 90,11 C 90,4 98,0 105,0 C 110,0 111,1 117,3 L 115,8 C 104,2 95,5 94,11 C 94,17 101,24 109,19 Z"/>
  <path id="a" d="M 145,50 L 150,50 L 150,13 C 150,5 143,0 135,0 C 131,0 127,0 122,3 L 124,8 C 128,5 131,4 135,4 C 141,4 145,9 145,16 L 135,21 C 124,26 118,29 119,37 C 120,46 126,50 132,50 C 135,50 138,49 140,46 L 142,41 C 130,48 125,45 124,38 C 122,30 128,30 135,26 L 145,21 Z"/>
</svg>
